<?xml version="1.0" encoding="UTF-8" standalone="no"?>
<!DOCTYPE svg PUBLIC "-//W3C//DTD SVG 1.1//EN" "http://www.w3.org/Graphics/SVG/1.1/DTD/svg11.dtd">
<svg width="900px" height="500px" viewBox="0 0 1024 768" version="1.1" xmlns="http://www.w3.org/2000/svg" xmlns:xlink="http://www.w3.org/1999/xlink" xml:space="preserve" xmlns:serif="http://www.serif.com/" style="fill-rule:evenodd;clip-rule:evenodd;stroke-linejoin:round;stroke-miterlimit:2;">
    <g transform="matrix(4.02372,0,0,4.02372,-883.963,-1383.03)">
        <g transform="matrix(0.269047,0,0,0.269047,208.893,337.557)">
            <path d="M490.024,392.224C489.681,366.997 473.664,346.653 453.985,346.653C434.091,346.653 417.939,367.444 417.939,393.052C417.939,418.66 434.091,439.45 453.985,439.45C464.773,439.45 474.461,433.336 481.071,423.652C481.241,424.522 481.421,425.384 481.609,426.238C483.574,435.14 486.985,442.827 491.84,449.301C495.041,453.569 498.996,457.209 503.705,460.221C490.768,476.096 473.254,485.849 453.985,485.849C414.197,485.849 381.894,444.268 381.894,393.052C381.894,341.836 414.197,300.254 453.985,300.254C493.558,300.254 525.726,341.388 526.072,392.224L490.024,392.224Z" style="fill:rgb(20,20,20);"/>
        </g>
        <g transform="matrix(1,0,0,1,-0.497053,0.248527)">
            <path d="M341.142,432.448C341.109,432.229 341.092,432.005 341.092,431.777L341.092,402.401C341.092,399.94 343.09,397.942 345.551,397.942L348.066,397.942C350.527,397.942 352.525,399.94 352.525,402.401L352.525,431.777C352.525,432.016 352.506,432.25 352.47,432.479L352.47,440.236C352.47,443.244 353.142,445.548 354.486,447.148C355.83,448.748 358.166,449.548 361.494,449.548C363.798,449.548 365.83,448.988 367.59,447.868C369.35,446.748 370.55,445.004 371.19,442.636L371.19,414.22C371.126,413.26 371.622,412.332 372.678,411.436C373.734,410.54 375.126,410.092 376.854,410.092C378.518,410.092 379.862,410.556 380.886,411.484C381.91,412.412 382.422,413.452 382.422,414.604L382.422,462.508C382.358,465.58 381.798,468.252 380.742,470.524C379.686,472.796 378.246,474.652 376.422,476.092C374.598,477.532 372.454,478.604 369.99,479.308C367.526,480.012 364.918,480.364 362.166,480.364C359.03,480.364 356.534,480.236 354.678,479.98C352.822,479.724 351.446,479.436 350.55,479.116C348.438,477.772 347.382,476.14 347.382,474.22C347.382,472.812 347.83,471.692 348.726,470.86C349.622,470.028 350.966,469.612 352.758,469.612C353.462,469.612 354.646,469.74 356.31,469.996C357.974,470.252 359.926,470.38 362.166,470.38C365.174,470.38 367.43,469.692 368.934,468.316C370.438,466.94 371.19,465.004 371.19,462.508L371.19,455.212L370.71,455.02C369.302,456.684 367.686,457.932 365.862,458.764C364.038,459.596 361.75,460.012 358.998,460.012C355.478,460.012 352.566,459.516 350.262,458.524C347.958,457.532 346.134,456.14 344.79,454.348C343.446,452.556 342.502,450.428 341.958,447.964C341.414,445.5 341.142,442.796 341.142,439.852L341.142,432.448Z" style="fill:rgb(20,20,20);"/>
        </g>
    </g>
</svg>
